# xmcd CD database file
#
# Track frame offsets:
#	150
#	23120
#	46995
#	72315
#	84405
#	103932
#	127900
#	155490
#	179887
#	203782
#	224995
#	248057
#	267212
#	304095
#
# Disc length: 4328 seconds
#
# Revision: 2
# Processed by: cddbd v1.5.2PL0 Copyright (c) Steve Scherf et al.
# Submitted via: CDex 1.70beta3
#
DISCID=cf10e60e
DTITLE=Small Circle Of Friends - “93BEST97.”
DYEAR=1999
DGENRE=Rock
TTITLE0=SING A SONG
TTITLE1=Sittin’ on the Fence
TTITLE2=Fancy Free
TTITLE3=君の声を捜しに…
TTITLE4=列車
TTITLE5=波よせて
TTITLE6=真夜中の自転車
TTITLE7=LOVE POTION No.5
TTITLE8=S.C.O.F.
TTITLE9=海を越え山を越え
TTITLE10=NEVER NEVER LAND
TTITLE11=1.2の3のスモールサークルオブフレンズ
TTITLE12=Sweet Storm
TTITLE13=Sittin’ on the fence’94
EXTD=YEAR: 1999
EXTT0=
EXTT1=
EXTT2=
EXTT3=
EXTT4=
EXTT5=
EXTT6=
EXTT7=
EXTT8=
EXTT9=
EXTT10=
EXTT11=
EXTT12=
EXTT13=
PLAYORDER=
